<?xml version="1.0" encoding="UTF-8"?><svg id="Layer_2" xmlns="http://www.w3.org/2000/svg" xmlns:xlink="http://www.w3.org/1999/xlink" viewBox="0 0 72 72"><defs><style>.cls-1{mask:url(#mask);}.cls-2{fill:url(#linear-gradient);}.cls-2,.cls-3,.cls-4,.cls-5,.cls-6{stroke-width:0px;}.cls-3{fill:#f4f4f4;}.cls-4{fill:url(#linear-gradient-2);}.cls-5{fill:url(#linear-gradient-3);}.cls-6{fill:#fff;}</style><linearGradient id="linear-gradient" x1="-197.4" y1="16.6" x2="-177.6" y2="16.6" gradientTransform="translate(208 74) scale(1 -1)" gradientUnits="userSpaceOnUse"><stop offset="0" stop-color="#000" stop-opacity="0"/><stop offset=".8" stop-color="#000"/></linearGradient><linearGradient id="linear-gradient-2" x1="-3109.3" y1="7852.4" x2="-3089.6" y2="7852.4" gradientTransform="translate(-3064.1 -7840.7) rotate(-180) scale(1 -1)" xlink:href="#linear-gradient"/><mask id="mask" x="0" y="0" width="72" height="72" maskUnits="userSpaceOnUse"><g id="SVGID"><path class="cls-6" d="M60,31.5h-4.9v-4.9c0-6.8-5.5-12.3-12.3-12.3h-14.8v-4.9h14.8c9.5,0,17.3,7.8,17.3,17.3v4.9Z"/><path class="cls-6" d="M27.9,61.1h-9.9c-9.5,0-17.3-7.8-17.3-17.3v-4.9h4.9v4.9c0,6.8,5.5,12.3,12.3,12.3h9.9v4.9Z"/><rect class="cls-2" x="10.6" y="51.2" width="19.8" height="12.3"/><polygon class="cls-4" points="45.2 6.8 25.5 6.8 25.5 16.6 45.2 16.6 45.2 6.8"/><path class="cls-6" d="M16.8,33.1H6.7c-2.1,0-3.7-1.7-3.7-3.7v-4.8h4.5v4.2h8V7.5h5v21.8c0,2.1-1.7,3.7-3.7,3.7Z"/></g></mask><linearGradient id="linear-gradient-3" x1="0" y1="2" x2="72" y2="74" gradientTransform="translate(0 74) scale(1 -1)" gradientUnits="userSpaceOnUse"><stop offset="0" stop-color="#bd94ff"/><stop offset=".9" stop-color="#4588ff"/></linearGradient></defs><g id="Layer_1-2"><g class="cls-1"><path class="cls-5" d="M0,0h72v72H0V0Z"/></g><polygon class="cls-3" points="65.2 48.9 59.3 54.9 62.5 58.1 71.8 48.9 62.5 39.7 59.3 43 65.2 48.9"/><polygon class="cls-3" points="36.8 48.9 42.8 43 39.5 39.7 30.3 48.9 39.5 58.1 42.8 54.9 36.8 48.9"/><rect class="cls-3" x="39.5" y="46.6" width="23" height="4.6" transform="translate(-9.4 85.6) rotate(-75)"/></g></svg>